<svg width="40" height="40" viewBox="0 0 40 40" fill="none" xmlns="http://www.w3.org/2000/svg">
<path d="M34.5506 15.4599C34.5506 25.1416 21.5429 35.9999 19.9706 35.9999C18.3983 35.9999 5.39062 24.6011 5.39062 15.4599C5.39062 7.39976 11.9183 0.865723 19.9706 0.865723C28.0229 0.865723 34.5506 7.39976 34.5506 15.4599Z" fill="white"/>
<path fill-rule="evenodd" clip-rule="evenodd" d="M19.9976 37.2416C20.5834 37.2416 21.0824 37.028 21.3076 36.9265C21.6084 36.7909 21.9182 36.616 22.2182 36.4288C22.8236 36.0511 23.5354 35.5312 24.2996 34.9109C25.0191 34.327 25.8105 33.6333 26.6343 32.8493C27.8874 33.5998 28.6416 34.5661 28.6416 35.6206C28.6416 38.0089 24.7733 39.9449 20.0014 39.9449C15.2296 39.9449 11.3613 38.0089 11.3613 35.6206C11.3613 34.5429 12.1491 33.5572 13.4522 32.8C14.2327 33.5587 14.9823 34.2355 15.6667 34.811C16.4282 35.4513 17.1382 35.9911 17.742 36.3843C18.041 36.5789 18.3513 36.7622 18.6537 36.9049C18.8753 37.0095 19.389 37.2416 19.9976 37.2416Z" fill="#16056B"/>
<path fill-rule="evenodd" clip-rule="evenodd" d="M19.9687 35.9999C21.541 35.9999 34.5487 25.1416 34.5487 15.4599C34.5487 7.39976 28.021 0.865723 19.9687 0.865723C11.9164 0.865723 5.38867 7.39976 5.38867 15.4599C5.38867 24.6011 18.3964 35.9999 19.9687 35.9999ZM14.3747 8.49109H14.3879C14.524 8.49136 14.6555 8.54562 14.7516 8.64197C14.8478 8.73831 14.9018 8.86887 14.9018 9.005V13.0665C14.8982 13.1998 14.9476 13.3291 15.0393 13.426C15.1311 13.5228 15.2575 13.5793 15.3908 13.5829C15.5242 13.5866 15.6535 13.5371 15.7503 13.4454C15.8472 13.3537 15.9036 13.2272 15.9073 13.0939L15.9062 13.0614V8.9989C15.9062 8.86422 15.9598 8.73506 16.055 8.63982C16.1502 8.54459 16.2794 8.49109 16.4141 8.49109C16.5487 8.49109 16.6779 8.54459 16.7731 8.63982C16.8684 8.73506 16.9219 8.86422 16.9219 8.9989V13.0878C16.9233 13.1538 16.9377 13.2189 16.9642 13.2794C16.9908 13.3398 17.029 13.3945 17.0767 13.4402C17.1243 13.4859 17.1805 13.5217 17.2421 13.5457C17.3036 13.5697 17.3693 13.5813 17.4353 13.5799C17.5013 13.5785 17.5664 13.5641 17.6269 13.5375C17.6873 13.511 17.7419 13.4728 17.7876 13.4251C17.8333 13.3774 17.8692 13.3212 17.8932 13.2597C17.9171 13.1981 17.9287 13.1325 17.9273 13.0665V9.00398C17.9273 8.86865 17.9808 8.73881 18.0761 8.64274C18.1714 8.54667 18.3008 8.49216 18.4362 8.49109H18.4555C18.4998 8.49211 18.5439 8.49893 18.5865 8.5114C18.6793 8.53826 18.7625 8.59103 18.8264 8.66353C18.8902 8.73603 18.9321 8.82524 18.947 8.9207C18.9602 8.99992 19.4609 12.1392 19.4609 13.5692C19.4608 14.0269 19.3576 14.4787 19.1589 14.891C18.9602 15.3033 18.6712 15.6656 18.3133 15.9509C18.0594 16.155 17.9375 16.3754 17.9375 16.5612V17.0691L17.9405 17.1249C18.0352 18.0149 18.1259 18.9053 18.2127 19.796C18.3295 20.9995 18.4453 22.2833 18.4453 22.7098C18.4453 23.2486 18.2313 23.7652 17.8504 24.1461C17.4694 24.5271 16.9528 24.7411 16.4141 24.7411C15.8753 24.7411 15.3587 24.5271 14.9778 24.1461C14.5968 23.7652 14.3828 23.2486 14.3828 22.7098C14.3828 22.2843 14.4986 20.9995 14.6154 19.796C14.7173 18.7492 14.8244 17.727 14.8702 17.2904C14.8778 17.2179 14.8837 17.1615 14.8876 17.1239C14.8896 17.1056 14.8906 17.0873 14.8906 17.0691V16.5612C14.8906 16.3764 14.7688 16.155 14.5148 15.9509C13.8161 15.3943 13.3672 14.5341 13.3672 13.5692C13.3672 12.1423 13.8648 9.01718 13.8811 8.92171C13.8947 8.8343 13.9309 8.75195 13.9861 8.68283C14.0414 8.61371 14.1137 8.56022 14.1959 8.52765C14.2528 8.50477 14.3134 8.49238 14.3747 8.49109ZM22.323 9.8297C21.4659 10.6868 20.9844 11.8493 20.9844 13.0614V15.0927C20.9844 15.4967 21.1449 15.8842 21.4306 16.1699C21.7163 16.4556 22.1038 16.6161 22.5078 16.6161H22.9689L22.9384 16.9777C22.8907 17.5312 22.8267 18.2787 22.7638 19.0516C22.6378 20.5821 22.5078 22.263 22.5078 22.7098C22.5078 23.2486 22.7218 23.7652 23.1028 24.1461C23.4837 24.5271 24.0003 24.7411 24.5391 24.7411C25.0778 24.7411 25.5944 24.5271 25.9754 24.1461C26.3563 23.7652 26.5703 23.2486 26.5703 22.7098C26.5703 22.2619 26.4403 20.5821 26.3144 19.0516C26.2392 18.1387 26.162 17.226 26.0828 16.3134L26.0625 16.0859V8.9989C26.0625 8.86422 26.009 8.73506 25.9138 8.63982C25.8185 8.54459 25.6894 8.49109 25.5547 8.49109C24.3426 8.49109 23.1801 8.9726 22.323 9.8297Z" fill="#16056B"/>
</svg>
