<?xml version="1.0" encoding="iso-8859-1"?>
<!-- Generator: Adobe Illustrator 21.0.0, SVG Export Plug-In . SVG Version: 6.00 Build 0)  -->

<svg width="29" height="40" viewBox="0 0 29 40" fill="none" xmlns="http://www.w3.org/2000/svg">
	<path fill-rule="evenodd" clip-rule="evenodd" d="M14.5005 37.0557C15.083 37.0557 15.5793 36.8436 15.8032 36.7427C16.1024 36.608 16.4105 36.4342 16.7088 36.2482C17.3109 35.873 18.0188 35.3564 18.7788 34.7402C19.4941 34.1602 20.2808 33.4712 21.0998 32.6927C22.3444 33.4381 23.0934 34.3976 23.0934 35.4445C23.0934 37.8173 19.2464 39.7408 14.5008 39.7408C9.75524 39.7408 5.9082 37.8173 5.9082 35.4445C5.9082 34.3733 6.69232 33.3936 7.98923 32.6412C8.76617 33.3957 9.51228 34.0686 10.1934 34.6408C10.9507 35.2771 11.6568 35.8134 12.2572 36.204C12.5546 36.3974 12.8633 36.5795 13.1639 36.7212C13.3844 36.8252 13.8952 37.0557 14.5005 37.0557ZM10.1556 31.7372C12.2548 33.6917 13.9881 34.9076 14.5005 34.9076C15.0207 34.9076 16.7996 33.7136 18.9421 31.7659C18.9421 31.7659 18.9421 31.7659 18.9421 31.7659C16.7996 33.7135 15.0208 34.9075 14.5006 34.9075C13.9882 34.9075 12.2549 33.6916 10.1558 31.7372C10.1557 31.7372 10.1557 31.7372 10.1556 31.7372Z" fill="#5795FA"/>
	<path fill-rule="evenodd" clip-rule="evenodd" d="M14.5 34.9074C16.0637 34.9074 29 24.1192 29 14.5C29 6.49187 22.5081 0 14.5 0C6.49187 0 0 6.49187 0 14.5C0 23.5822 12.9363 34.9074 14.5 34.9074ZM14.4993 24.7395C10.0504 24.7395 5.90675 20.0588 5.90675 17.2209C11.7653 19.0518 17.2333 19.0518 23.0919 17.2209C23.0919 20.0588 18.9483 24.7395 14.4993 24.7395Z" fill="#FD9518"/>
</svg>

